<svg xmlns="http://www.w3.org/2000/svg" width="128" height="30" viewBox="0 0 128 30" fill="none">
  <g clip-path="url(#clip0_495_5687)">
    <path d="M0.194336 0V30H127.806V0H0.194336ZM123.778 25.9883H4.21295V4.021H123.788V25.9883H123.778Z" fill="white"/>
    <path d="M110.581 16.7423H110.59V21.9862H114.609L114.6 16.7423H114.609H114.6L119.648 8.01465H115.63L112.595 13.2679L109.56 8.01465H105.532L110.581 16.7423Z" fill="white"/>
    <path d="M71.8242 21.9862H84.901L86.5158 17.8541H92.0751L94.4603 21.9862H100.437C103.723 21.9862 106.739 19.809 107.444 16.6033C108.447 12.082 105.013 8.01465 100.641 8.01465H94.5902V15.2691L90.386 8.01465H86.3673L82.0146 19.077H75.8336V17.8448H81.7826V14.9634H75.8336V10.8961H82.7107V8.01465H71.8057V21.9862H71.8242ZM98.6181 10.9516H100.641H99.6575C101.913 10.9516 103.741 12.7768 103.741 15.0282C103.741 17.2796 101.913 19.0956 99.6668 19.1048H98.6274V10.9609L98.6181 10.9516ZM88.7896 12.0912L90.4509 14.9634H87.6759L88.7896 12.0912Z" fill="white"/>
    <path d="M63.7588 21.9858V17.8814H65.4294L67.796 21.9858H71.8146L69.1139 17.3069C70.7102 16.5009 71.8239 14.861 71.8239 12.9431C71.8239 10.2285 69.6243 8.02344 66.9051 8.02344H59.7402V21.995H63.7588V21.9858ZM63.7588 10.9048H65.6521C66.6081 10.9048 67.499 11.5071 67.7218 12.4336C68.0466 13.777 67.035 14.9722 65.7449 14.9722V15H63.7588V10.9141V10.9048Z" fill="white"/>
    <path d="M56.6316 21.9862V19.0863H49.7545V17.8541H55.7035V14.9726H49.7545V10.9053H56.6316V8.01465H49.7545H45.7266V21.9862H45.7358H56.6316Z" fill="white"/>
    <path d="M44.7979 8.01465H40.7793V21.9862H44.7979V8.01465Z" fill="white"/>
    <path d="M11.8042 14.9722L15.7022 21.7078L19.6002 14.9722V21.9858H25.3914L27.0063 17.8536H32.5656L33.837 20.0586L32.7233 21.995H36.7419L40.7791 15.0092L36.7512 8.02344H32.7326L36.7605 15.0092L35.851 16.5935L30.895 8.0327H26.8764L23.6374 16.2693V8.0327H19.6187L15.7301 14.7591L11.8321 8.0327H7.81348V22.0043H11.8321V14.9907L11.8042 14.9722ZM29.2708 12.0908L30.9321 14.9629H28.1571L29.2708 12.0908Z" fill="white"/>
  </g>
  <defs>
    <clipPath id="clip0_495_5687">
      <rect width="127.612" height="30" fill="white" transform="translate(0.194336)"/>
    </clipPath>
  </defs>
</svg>